<svg width="347" height="101" viewBox="0 0 347 101" fill="none" xmlns="http://www.w3.org/2000/svg">
<mask id="path-1-outside-1_180_125" maskUnits="userSpaceOnUse" x="-1" y="-1" width="350" height="103" fill="black">
<rect fill="white" x="-1" y="-1" width="350" height="103"/>
<path d="M24.282 85.408V59.808H18.778V46.624H39.13V85.408C39.13 88.3947 38.874 90.784 38.362 92.576C36.7407 98.1227 30.5113 100.896 19.674 100.896C12.9327 100.896 8.19667 100 5.466 98.208C1.96733 95.904 0.218 91.6373 0.218 85.408V16.032C0.218 9.80266 1.96733 5.536 5.466 3.23199C8.19667 1.44 12.9327 0.543999 19.674 0.543999C30.5113 0.543999 36.7407 3.31733 38.362 8.864C38.874 10.656 39.13 13.0453 39.13 16.032V34.464H24.282V16.032C24.282 14.3253 23.9407 13.2587 23.258 12.832C22.6607 12.32 21.466 12.064 19.674 12.064C17.882 12.064 16.6447 12.32 15.962 12.832C15.3647 13.2587 15.066 14.3253 15.066 16.032V85.408C15.066 87.1147 15.3647 88.224 15.962 88.736C16.6447 89.1627 17.882 89.376 19.674 89.376C21.466 89.376 22.6607 89.1627 23.258 88.736C23.9407 88.224 24.282 87.1147 24.282 85.408ZM89.169 100H74.193L72.017 75.424H60.369L57.809 100H44.625L55.889 1.43999H77.905L89.169 100ZM66.513 15.008L61.777 62.496H70.737L66.513 15.008ZM127.141 77.984V1.43999H139.173V100H119.205L105.765 21.024V100H93.733V1.43999H114.469L127.141 77.984ZM171.907 85.408V59.808H166.403V46.624H186.755V85.408C186.755 88.3947 186.499 90.784 185.987 92.576C184.366 98.1227 178.136 100.896 167.299 100.896C160.558 100.896 155.822 100 153.091 98.208C149.592 95.904 147.843 91.6373 147.843 85.408V16.032C147.843 9.80266 149.592 5.536 153.091 3.23199C155.822 1.44 160.558 0.543999 167.299 0.543999C178.136 0.543999 184.366 3.31733 185.987 8.864C186.499 10.656 186.755 13.0453 186.755 16.032V34.464H171.907V16.032C171.907 14.3253 171.566 13.2587 170.883 12.832C170.286 12.32 169.091 12.064 167.299 12.064C165.507 12.064 164.27 12.32 163.587 12.832C162.99 13.2587 162.691 14.3253 162.691 16.032V85.408C162.691 87.1147 162.99 88.224 163.587 88.736C164.27 89.1627 165.507 89.376 167.299 89.376C169.091 89.376 170.286 89.1627 170.883 88.736C171.566 88.224 171.907 87.1147 171.907 85.408ZM244.73 1.43999H256.634L246.65 100H230.906L226.042 26.4H225.786L218.746 100H201.978L192.762 1.43999H207.738L212.09 72.736H212.346L218.106 1.43999H233.85L238.97 72.736H239.354L244.73 1.43999ZM301.544 100H286.568L284.392 75.424H272.744L270.184 100H257L268.264 1.43999H290.28L301.544 100ZM278.888 15.008L274.152 62.496H283.112L278.888 15.008ZM306.364 100V1.43999H323.132C332.519 1.43999 338.492 2.76266 341.052 5.408C343.612 7.96799 344.892 13.9413 344.892 23.328V35.104C344.892 46.9653 343.356 54.0053 340.284 56.224C339.089 57.0773 337.596 57.7173 335.804 58.144L346.94 100H331.708L321.212 58.016H320.956V100H306.364ZM320.956 13.216V47.136H326.332C327.1 47.136 327.697 47.008 328.124 46.752C329.319 46.0693 329.916 42.528 329.916 36.128V22.688C329.916 17.056 329.361 13.984 328.252 13.472C327.911 13.3013 327.271 13.216 326.332 13.216H320.956Z"/>
</mask>
<path d="M24.282 59.808H25.282V58.808H24.282V59.808ZM18.778 59.808H17.778V60.808H18.778V59.808ZM18.778 46.624V45.624H17.778V46.624H18.778ZM39.13 46.624H40.13V45.624H39.13V46.624ZM38.362 92.576L39.3219 92.8566L39.3235 92.8507L38.362 92.576ZM5.466 98.208L4.91601 99.0432L4.91734 99.044L5.466 98.208ZM5.466 3.23199L4.91734 2.39594L4.91601 2.39682L5.466 3.23199ZM38.362 8.864L39.3235 8.58927L39.3218 8.58343L38.362 8.864ZM39.13 34.464V35.464H40.13V34.464H39.13ZM24.282 34.464H23.282V35.464H24.282V34.464ZM23.258 12.832L22.6072 13.5913L22.6643 13.6402L22.728 13.68L23.258 12.832ZM15.962 12.832L16.5432 13.6457L16.5527 13.639L16.562 13.632L15.962 12.832ZM15.962 88.736L15.3112 89.4953L15.3683 89.5442L15.432 89.584L15.962 88.736ZM23.258 88.736L23.8392 89.5497L23.8487 89.543L23.858 89.536L23.258 88.736ZM25.282 85.408V59.808H23.282V85.408H25.282ZM24.282 58.808H18.778V60.808H24.282V58.808ZM19.778 59.808V46.624H17.778V59.808H19.778ZM18.778 47.624H39.13V45.624H18.778V47.624ZM38.13 46.624V85.408H40.13V46.624H38.13ZM38.13 85.408C38.13 88.3504 37.8764 90.6357 37.4005 92.3013L39.3235 92.8507C39.8717 90.9323 40.13 88.4389 40.13 85.408H38.13ZM37.4022 92.2954C36.689 94.7351 34.967 96.6115 32.0673 97.9024C29.134 99.2084 25.0259 99.896 19.674 99.896V101.896C25.1594 101.896 29.5847 101.197 32.8807 99.7296C36.2104 98.2472 38.4136 95.9636 39.3218 92.8566L37.4022 92.2954ZM19.674 99.896C12.9591 99.896 8.48304 98.9918 6.01466 97.372L4.91734 99.044C7.91029 101.008 12.9062 101.896 19.674 101.896V99.896ZM6.01599 97.3728C2.91801 95.3327 1.218 91.4754 1.218 85.408H-0.782C-0.782 91.7992 1.01666 96.4753 4.91601 99.0432L6.01599 97.3728ZM1.218 85.408V16.032H-0.782V85.408H1.218ZM1.218 16.032C1.218 9.96458 2.91801 6.1073 6.01599 4.06717L4.91601 2.39682C1.01666 4.96469 -0.782 9.64075 -0.782 16.032H1.218ZM6.01466 4.06804C8.48304 2.44817 12.9591 1.544 19.674 1.544V-0.456001C12.9062 -0.456001 7.91029 0.431826 4.91735 2.39595L6.01466 4.06804ZM19.674 1.544C25.0259 1.544 29.134 2.23162 32.0673 3.53755C34.967 4.8285 36.689 6.70491 37.4022 9.14457L39.3218 8.58343C38.4136 5.47642 36.2104 3.19283 32.8807 1.71045C29.5847 0.243042 25.1594 -0.456001 19.674 -0.456001V1.544ZM37.4005 9.13872C37.8764 10.8043 38.13 13.0896 38.13 16.032H40.13C40.13 13.0011 39.8717 10.5077 39.3235 8.58928L37.4005 9.13872ZM38.13 16.032V34.464H40.13V16.032H38.13ZM39.13 33.464H24.282V35.464H39.13V33.464ZM25.282 34.464V16.032H23.282V34.464H25.282ZM25.282 16.032C25.282 15.1235 25.1926 14.3164 24.9784 13.6472C24.7637 12.9761 24.3961 12.3641 23.788 11.984L22.728 13.68C22.8025 13.7266 22.947 13.8612 23.0736 14.2568C23.2008 14.6543 23.282 15.2339 23.282 16.032H25.282ZM23.9088 12.0727C23.4324 11.6644 22.802 11.4236 22.1235 11.2782C21.4335 11.1303 20.611 11.064 19.674 11.064V13.064C20.529 13.064 21.1998 13.1257 21.7045 13.2338C22.2207 13.3444 22.4863 13.4876 22.6072 13.5913L23.9088 12.0727ZM19.674 11.064C17.8599 11.064 16.3265 11.3086 15.362 12.032L16.562 13.632C16.9629 13.3314 17.9041 13.064 19.674 13.064V11.064ZM15.3808 12.0183C14.8228 12.4168 14.5079 13.0363 14.327 13.6824C14.1437 14.3373 14.066 15.131 14.066 16.032H16.066C16.066 15.2263 16.1377 14.6333 16.253 14.2216C16.3707 13.801 16.5038 13.6739 16.5432 13.6457L15.3808 12.0183ZM14.066 16.032V85.408H16.066V16.032H14.066ZM14.066 85.408C14.066 86.311 14.1441 87.1103 14.3244 87.78C14.5031 88.444 14.8043 89.0608 15.3112 89.4953L16.6128 87.9767C16.5223 87.8992 16.3755 87.7054 16.2556 87.26C16.1373 86.8204 16.066 86.2117 16.066 85.408H14.066ZM15.432 89.584C16.3769 90.1746 17.8733 90.376 19.674 90.376V88.376C17.8907 88.376 16.9124 88.1508 16.492 87.888L15.432 89.584ZM19.674 90.376C20.6039 90.376 21.4141 90.3211 22.0898 90.2004C22.7495 90.0826 23.3657 89.888 23.8392 89.5497L22.6768 87.9223C22.553 88.0107 22.2732 88.136 21.7382 88.2316C21.2192 88.3242 20.5361 88.376 19.674 88.376V90.376ZM23.858 89.536C24.4198 89.1147 24.771 88.4993 24.9818 87.8141C25.192 87.1308 25.282 86.3187 25.282 85.408H23.282C23.282 86.2039 23.2013 86.7999 23.0702 87.2259C22.9397 87.6501 22.7789 87.8453 22.658 87.936L23.858 89.536ZM89.169 100V101H90.2898L90.1625 99.8865L89.169 100ZM74.193 100L73.1969 100.088L73.2776 101H74.193V100ZM72.017 75.424L73.0131 75.3358L72.9324 74.424H72.017V75.424ZM60.369 75.424V74.424H59.4678L59.3744 75.3204L60.369 75.424ZM57.809 100V101H58.7102L58.8036 100.104L57.809 100ZM44.625 100L43.6315 99.8865L43.5042 101H44.625V100ZM55.889 1.43999V0.439995H54.9968L54.8955 1.32645L55.889 1.43999ZM77.905 1.43999L78.8985 1.32645L78.7972 0.439995H77.905V1.43999ZM66.513 15.008L67.5091 14.9194L65.5179 14.9088L66.513 15.008ZM61.777 62.496L60.7819 62.3968L60.6723 63.496H61.777V62.496ZM70.737 62.496V63.496H71.8299L71.7331 62.4074L70.737 62.496ZM89.169 99H74.193V101H89.169V99ZM75.1891 99.9118L73.0131 75.3358L71.0209 75.5122L73.1969 100.088L75.1891 99.9118ZM72.017 74.424H60.369V76.424H72.017V74.424ZM59.3744 75.3204L56.8144 99.8964L58.8036 100.104L61.3636 75.5276L59.3744 75.3204ZM57.809 99H44.625V101H57.809V99ZM45.6185 100.114L56.8825 1.55354L54.8955 1.32645L43.6315 99.8865L45.6185 100.114ZM55.889 2.43999H77.905V0.439995H55.889V2.43999ZM76.9115 1.55354L88.1755 100.114L90.1625 99.8865L78.8985 1.32645L76.9115 1.55354ZM65.5179 14.9088L60.7819 62.3968L62.7721 62.5952L67.5081 15.1072L65.5179 14.9088ZM61.777 63.496H70.737V61.496H61.777V63.496ZM71.7331 62.4074L67.5091 14.9194L65.5169 15.0966L69.7409 62.5846L71.7331 62.4074ZM127.141 77.984L126.154 78.1473L128.141 77.984H127.141ZM127.141 1.43999V0.439995H126.141V1.43999H127.141ZM139.173 1.43999H140.173V0.439995H139.173V1.43999ZM139.173 100V101H140.173V100H139.173ZM119.205 100L118.219 100.168L118.361 101H119.205V100ZM105.765 21.024L106.751 20.8562L104.765 21.024H105.765ZM105.765 100V101H106.765V100H105.765ZM93.733 100H92.733V101H93.733V100ZM93.733 1.43999V0.439995H92.733V1.43999H93.733ZM114.469 1.43999L115.456 1.27667L115.317 0.439995H114.469V1.43999ZM128.141 77.984V1.43999H126.141V77.984H128.141ZM127.141 2.43999H139.173V0.439995H127.141V2.43999ZM138.173 1.43999V100H140.173V1.43999H138.173ZM139.173 99H119.205V101H139.173V99ZM120.191 99.8322L106.751 20.8562L104.779 21.1918L118.219 100.168L120.191 99.8322ZM104.765 21.024V100H106.765V21.024H104.765ZM105.765 99H93.733V101H105.765V99ZM94.733 100V1.43999H92.733V100H94.733ZM93.733 2.43999H114.469V0.439995H93.733V2.43999ZM113.482 1.60332L126.154 78.1473L128.128 77.8207L115.456 1.27667L113.482 1.60332ZM171.907 59.808H172.907V58.808H171.907V59.808ZM166.403 59.808H165.403V60.808H166.403V59.808ZM166.403 46.624V45.624H165.403V46.624H166.403ZM186.755 46.624H187.755V45.624H186.755V46.624ZM185.987 92.576L186.947 92.8566L186.949 92.8507L185.987 92.576ZM153.091 98.208L152.541 99.0432L152.542 99.044L153.091 98.208ZM153.091 3.23199L152.542 2.39594L152.541 2.39682L153.091 3.23199ZM185.987 8.864L186.949 8.58927L186.947 8.58343L185.987 8.864ZM186.755 34.464V35.464H187.755V34.464H186.755ZM171.907 34.464H170.907V35.464H171.907V34.464ZM170.883 12.832L170.232 13.5913L170.289 13.6402L170.353 13.68L170.883 12.832ZM163.587 12.832L164.168 13.6457L164.178 13.639L164.187 13.632L163.587 12.832ZM163.587 88.736L162.936 89.4953L162.993 89.5442L163.057 89.584L163.587 88.736ZM170.883 88.736L171.464 89.5497L171.474 89.543L171.483 89.536L170.883 88.736ZM172.907 85.408V59.808H170.907V85.408H172.907ZM171.907 58.808H166.403V60.808H171.907V58.808ZM167.403 59.808V46.624H165.403V59.808H167.403ZM166.403 47.624H186.755V45.624H166.403V47.624ZM185.755 46.624V85.408H187.755V46.624H185.755ZM185.755 85.408C185.755 88.3504 185.501 90.6357 185.025 92.3013L186.949 92.8507C187.497 90.9323 187.755 88.4389 187.755 85.408H185.755ZM185.027 92.2954C184.314 94.7351 182.592 96.6115 179.692 97.9024C176.759 99.2084 172.651 99.896 167.299 99.896V101.896C172.784 101.896 177.21 101.197 180.506 99.7296C183.835 98.2472 186.039 95.9636 186.947 92.8566L185.027 92.2954ZM167.299 99.896C160.584 99.896 156.108 98.9918 153.64 97.372L152.542 99.044C155.535 101.008 160.531 101.896 167.299 101.896V99.896ZM153.641 97.3728C150.543 95.3327 148.843 91.4754 148.843 85.408H146.843C146.843 91.7992 148.642 96.4753 152.541 99.0432L153.641 97.3728ZM148.843 85.408V16.032H146.843V85.408H148.843ZM148.843 16.032C148.843 9.96458 150.543 6.1073 153.641 4.06717L152.541 2.39682C148.642 4.96469 146.843 9.64075 146.843 16.032H148.843ZM153.64 4.06804C156.108 2.44817 160.584 1.544 167.299 1.544V-0.456001C160.531 -0.456001 155.535 0.431826 152.542 2.39595L153.64 4.06804ZM167.299 1.544C172.651 1.544 176.759 2.23162 179.692 3.53755C182.592 4.8285 184.314 6.70491 185.027 9.14457L186.947 8.58343C186.039 5.47642 183.835 3.19283 180.506 1.71045C177.21 0.243042 172.784 -0.456001 167.299 -0.456001V1.544ZM185.025 9.13872C185.501 10.8043 185.755 13.0896 185.755 16.032H187.755C187.755 13.0011 187.497 10.5077 186.949 8.58928L185.025 9.13872ZM185.755 16.032V34.464H187.755V16.032H185.755ZM186.755 33.464H171.907V35.464H186.755V33.464ZM172.907 34.464V16.032H170.907V34.464H172.907ZM172.907 16.032C172.907 15.1235 172.818 14.3164 172.603 13.6472C172.389 12.9761 172.021 12.3641 171.413 11.984L170.353 13.68C170.428 13.7266 170.572 13.8612 170.699 14.2568C170.826 14.6543 170.907 15.2339 170.907 16.032H172.907ZM171.534 12.0727C171.057 11.6644 170.427 11.4236 169.749 11.2782C169.059 11.1303 168.236 11.064 167.299 11.064V13.064C168.154 13.064 168.825 13.1257 169.329 13.2338C169.846 13.3444 170.111 13.4876 170.232 13.5913L171.534 12.0727ZM167.299 11.064C165.485 11.064 163.951 11.3086 162.987 12.032L164.187 13.632C164.588 13.3314 165.529 13.064 167.299 13.064V11.064ZM163.006 12.0183C162.448 12.4168 162.133 13.0363 161.952 13.6824C161.769 14.3373 161.691 15.131 161.691 16.032H163.691C163.691 15.2263 163.763 14.6333 163.878 14.2216C163.996 13.801 164.129 13.6739 164.168 13.6457L163.006 12.0183ZM161.691 16.032V85.408H163.691V16.032H161.691ZM161.691 85.408C161.691 86.311 161.769 87.1103 161.949 87.78C162.128 88.444 162.429 89.0608 162.936 89.4953L164.238 87.9767C164.147 87.8992 164.001 87.7054 163.881 87.26C163.762 86.8204 163.691 86.2117 163.691 85.408H161.691ZM163.057 89.584C164.002 90.1746 165.498 90.376 167.299 90.376V88.376C165.516 88.376 164.537 88.1508 164.117 87.888L163.057 89.584ZM167.299 90.376C168.229 90.376 169.039 90.3211 169.715 90.2004C170.375 90.0826 170.991 89.888 171.464 89.5497L170.302 87.9223C170.178 88.0107 169.898 88.136 169.363 88.2316C168.844 88.3242 168.161 88.376 167.299 88.376V90.376ZM171.483 89.536C172.045 89.1147 172.396 88.4993 172.607 87.8141C172.817 87.1308 172.907 86.3187 172.907 85.408H170.907C170.907 86.2039 170.826 86.7999 170.695 87.2259C170.565 87.6501 170.404 87.8453 170.283 87.936L171.483 89.536ZM244.73 1.43999V0.439995H243.803L243.733 1.36481L244.73 1.43999ZM256.634 1.43999L257.629 1.54078L257.74 0.439995H256.634V1.43999ZM246.65 100V101H247.554L247.645 100.101L246.65 100ZM230.906 100L229.908 100.066L229.97 101H230.906V100ZM226.042 26.4L227.04 26.334L226.978 25.4H226.042V26.4ZM225.786 26.4V25.4H224.877L224.791 26.3048L225.786 26.4ZM218.746 100V101H219.655L219.741 100.095L218.746 100ZM201.978 100L200.982 100.093L201.067 101H201.978V100ZM192.762 1.43999V0.439995H191.664L191.766 1.53309L192.762 1.43999ZM207.738 1.43999L208.736 1.37907L208.679 0.439995H207.738V1.43999ZM212.09 72.736L211.092 72.7969L211.149 73.736H212.09V72.736ZM212.346 72.736V73.736H213.268L213.343 72.8165L212.346 72.736ZM218.106 1.43999V0.439995H217.184L217.109 1.35947L218.106 1.43999ZM233.85 1.43999L234.847 1.36837L234.781 0.439995H233.85V1.43999ZM238.97 72.736L237.973 72.8076L238.039 73.736H238.97V72.736ZM239.354 72.736V73.736H240.281L240.351 72.8112L239.354 72.736ZM244.73 2.43999H256.634V0.439995H244.73V2.43999ZM255.639 1.33921L245.655 99.8992L247.645 100.101L257.629 1.54078L255.639 1.33921ZM246.65 99H230.906V101H246.65V99ZM231.904 99.9341L227.04 26.334L225.044 26.4659L229.908 100.066L231.904 99.9341ZM226.042 25.4H225.786V27.4H226.042V25.4ZM224.791 26.3048L217.751 99.9048L219.741 100.095L226.781 26.4952L224.791 26.3048ZM218.746 99H201.978V101H218.746V99ZM202.974 99.9069L193.758 1.3469L191.766 1.53309L200.982 100.093L202.974 99.9069ZM192.762 2.43999H207.738V0.439995H192.762V2.43999ZM206.74 1.50092L211.092 72.7969L213.088 72.6751L208.736 1.37907L206.74 1.50092ZM212.09 73.736H212.346V71.736H212.09V73.736ZM213.343 72.8165L219.103 1.52052L217.109 1.35947L211.349 72.6555L213.343 72.8165ZM218.106 2.43999H233.85V0.439995H218.106V2.43999ZM232.853 1.51162L237.973 72.8076L239.967 72.6644L234.847 1.36837L232.853 1.51162ZM238.97 73.736H239.354V71.736H238.97V73.736ZM240.351 72.8112L245.727 1.51518L243.733 1.36481L238.357 72.6608L240.351 72.8112ZM301.544 100V101H302.665L302.538 99.8865L301.544 100ZM286.568 100L285.572 100.088L285.653 101H286.568V100ZM284.392 75.424L285.388 75.3358L285.307 74.424H284.392V75.424ZM272.744 75.424V74.424H271.843L271.749 75.3204L272.744 75.424ZM270.184 100V101H271.085L271.179 100.104L270.184 100ZM257 100L256.006 99.8865L255.879 101H257V100ZM268.264 1.43999V0.439995H267.372L267.27 1.32645L268.264 1.43999ZM290.28 1.43999L291.274 1.32645L291.172 0.439995H290.28V1.43999ZM278.888 15.008L279.884 14.9194L277.893 14.9088L278.888 15.008ZM274.152 62.496L273.157 62.3968L273.047 63.496H274.152V62.496ZM283.112 62.496V63.496H284.205L284.108 62.4074L283.112 62.496ZM301.544 99H286.568V101H301.544V99ZM287.564 99.9118L285.388 75.3358L283.396 75.5122L285.572 100.088L287.564 99.9118ZM284.392 74.424H272.744V76.424H284.392V74.424ZM271.749 75.3204L269.189 99.8964L271.179 100.104L273.739 75.5276L271.749 75.3204ZM270.184 99H257V101H270.184V99ZM257.994 100.114L269.258 1.55354L267.27 1.32645L256.006 99.8865L257.994 100.114ZM268.264 2.43999H290.28V0.439995H268.264V2.43999ZM289.286 1.55354L300.55 100.114L302.538 99.8865L291.274 1.32645L289.286 1.55354ZM277.893 14.9088L273.157 62.3968L275.147 62.5952L279.883 15.1072L277.893 14.9088ZM274.152 63.496H283.112V61.496H274.152V63.496ZM284.108 62.4074L279.884 14.9194L277.892 15.0966L282.116 62.5846L284.108 62.4074ZM306.364 100H305.364V101H306.364V100ZM306.364 1.43999V0.439995H305.364V1.43999H306.364ZM341.052 5.408L340.333 6.10342L340.339 6.10931L340.345 6.1151L341.052 5.408ZM340.284 56.224L340.865 57.0377L340.869 57.0347L340.284 56.224ZM335.804 58.144L335.572 57.1712L334.574 57.409L334.838 58.4011L335.804 58.144ZM346.94 100V101H348.241L347.906 99.7429L346.94 100ZM331.708 100L330.738 100.243L330.927 101H331.708V100ZM321.212 58.016L322.182 57.7735L321.993 57.016H321.212V58.016ZM320.956 58.016V57.016H319.956V58.016H320.956ZM320.956 100V101H321.956V100H320.956ZM320.956 13.216V12.216H319.956V13.216H320.956ZM320.956 47.136H319.956V48.136H320.956V47.136ZM328.124 46.752L327.628 45.8838L327.619 45.889L327.609 45.8945L328.124 46.752ZM328.252 13.472L327.805 14.3664L327.819 14.3734L327.833 14.38L328.252 13.472ZM307.364 100V1.43999H305.364V100H307.364ZM306.364 2.43999H323.132V0.439995H306.364V2.43999ZM323.132 2.43999C327.787 2.43999 331.547 2.76871 334.436 3.40835C337.345 4.05252 339.253 4.98691 340.333 6.10342L341.771 4.71258C340.291 3.18375 337.932 2.13414 334.868 1.45564C331.784 0.772612 327.864 0.439995 323.132 0.439995V2.43999ZM340.345 6.1151C341.424 7.19421 342.33 9.10387 342.954 12.0175C343.574 14.9091 343.892 18.6719 343.892 23.328H345.892C345.892 18.5974 345.57 14.6803 344.91 11.5985C344.254 8.53878 343.24 6.18178 341.759 4.70089L340.345 6.1151ZM343.892 23.328V35.104H345.892V23.328H343.892ZM343.892 35.104C343.892 41.0026 343.509 45.6471 342.763 49.0668C342.006 52.5363 340.919 54.5315 339.699 55.4133L340.869 57.0347C342.721 55.6978 343.938 53.0637 344.717 49.4932C345.507 45.8729 345.892 41.0667 345.892 35.104H343.892ZM339.703 55.4103C338.636 56.172 337.27 56.7671 335.572 57.1712L336.036 59.1168C337.922 58.6675 339.542 57.9827 340.865 57.0377L339.703 55.4103ZM334.838 58.4011L345.974 100.257L347.906 99.7429L336.77 57.8869L334.838 58.4011ZM346.94 99H331.708V101H346.94V99ZM332.678 99.7575L322.182 57.7735L320.242 58.2585L330.738 100.243L332.678 99.7575ZM321.212 57.016H320.956V59.016H321.212V57.016ZM319.956 58.016V100H321.956V58.016H319.956ZM320.956 99H306.364V101H320.956V99ZM319.956 13.216V47.136H321.956V13.216H319.956ZM320.956 48.136H326.332V46.136H320.956V48.136ZM326.332 48.136C327.191 48.136 327.994 47.9963 328.638 47.6095L327.609 45.8945C327.401 46.0197 327.009 46.136 326.332 46.136V48.136ZM328.62 47.6202C329.199 47.2897 329.571 46.7014 329.829 46.0946C330.095 45.4661 330.298 44.6746 330.454 43.7503C330.767 41.898 330.916 39.3478 330.916 36.128H328.916C328.916 39.3082 328.767 41.7287 328.482 43.4177C328.339 44.264 328.169 44.8859 327.987 45.3134C327.797 45.7626 327.647 45.873 327.628 45.8838L328.62 47.6202ZM330.916 36.128V22.688H328.916V36.128H330.916ZM330.916 22.688C330.916 19.8517 330.777 17.6059 330.484 15.9823C330.338 15.1728 330.146 14.4717 329.887 13.9149C329.637 13.3761 329.262 12.8367 328.671 12.564L327.833 14.38C327.797 14.3633 327.907 14.3999 328.073 14.7571C328.23 15.0963 328.385 15.6112 328.516 16.3377C328.777 17.7861 328.916 19.8923 328.916 22.688H330.916ZM328.699 12.5776C328.384 12.4202 328.013 12.3374 327.648 12.2888C327.27 12.2383 326.828 12.216 326.332 12.216V14.216C326.775 14.216 327.122 14.2364 327.384 14.2712C327.659 14.3079 327.778 14.3532 327.805 14.3664L328.699 12.5776ZM326.332 12.216H320.956V14.216H326.332V12.216Z" fill="url(#paint0_linear_180_125)" mask="url(#path-1-outside-1_180_125)"/>
<defs>
<linearGradient id="paint0_linear_180_125" x1="172.5" y1="-26" x2="172.5" y2="139" gradientUnits="userSpaceOnUse">
<stop stop-color="white"/>
<stop offset="0.385" stop-color="#B7B7B7" stop-opacity="0.35"/>
<stop offset="0.514865" stop-color="#999999" stop-opacity="0"/>
<stop offset="0.65" stop-color="#B3B3B3" stop-opacity="0.44"/>
<stop offset="1" stop-color="white"/>
</linearGradient>
</defs>
</svg>
